<svg xmlns:dc="http://purl.org/dc/elements/1.1/" xmlns:cc="http://creativecommons.org/ns#" xmlns:rdf="http://www.w3.org/1999/02/22-rdf-syntax-ns#" xmlns:svg="http://www.w3.org/2000/svg" xmlns="http://www.w3.org/2000/svg" xmlns:xlink="http://www.w3.org/1999/xlink" id="svg215371" viewBox="0 0 1024 768" height="768px" width="1024px" version="1.1">
  <metadata id="metadata215377">
    <rdf:rdf>
      <cc:work rdf:about="">
        <dc:format>image/svg+xml</dc:format>
        <dc:type rdf:resource="http://purl.org/dc/dcmitype/StillImage"></dc:type>
      </cc:work>
    </rdf:rdf>
  </metadata>
  <defs id="defs215375"></defs>
  <linearGradient spreadMethod="pad" y2="30%" x2="-10%" y1="120%" x1="30%" id="3d_gradient2-logo-6e1c9d09-6bbe-498d-bc17-da3a0c9e75ff">
    <stop id="stop215352" stop-opacity="1" stop-color="#ffffff" offset="0%"></stop>
    <stop id="stop215354" stop-opacity="1" stop-color="#000000" offset="100%"></stop>
  </linearGradient>
  <linearGradient gradientTransform="rotate(-30)" spreadMethod="pad" y2="30%" x2="-10%" y1="120%" x1="30%" id="3d_gradient3-logo-6e1c9d09-6bbe-498d-bc17-da3a0c9e75ff">
    <stop id="stop215357" stop-opacity="1" stop-color="#ffffff" offset="0%"></stop>
    <stop id="stop215359" stop-opacity="1" stop-color="#cccccc" offset="50%"></stop>
    <stop id="stop215361" stop-opacity="1" stop-color="#000000" offset="100%"></stop>
  </linearGradient>
  <g id="logo-group">
    <image xlink:href="" id="container" x="272" y="144" width="480" height="480" transform="translate(0 0)" style="display: none;"></image>
    <g id="logo-center" transform="translate(256.201725 0)">
      <image xlink:href="" id="icon_container" x="0" y="0" style="display: none;"></image>
      <g id="slogan" style="font-style:normal;font-weight:700;font-size:32px;line-height:1;font-family:Nunito;font-variant-ligatures:none;text-align:center;text-anchor:middle" transform="translate(0 0)"></g>
      <g id="title" style="font-style:normal;font-weight:700;font-size:72px;line-height:1;font-family:'Comfortaa Bold Alt1';font-variant-ligatures:none;text-align:center;text-anchor:middle" transform="translate(0 0)">
        <path id="path215380" style="font-style:normal;font-weight:700;font-size:72px;line-height:1;font-family:'Comfortaa Bold Alt1';font-variant-ligatures:none;text-align:center;text-anchor:middle" d="m 435.46737,-3.672 c 0,-0.432 -0.144,-0.936 -0.36,-1.584 l -20.30399,-48.456 c -0.64801,-1.656 -1.80001,-2.52 -3.52801,-2.52 -1.656,0 -2.808,0.864 -3.528,2.52 l -20.232,48.312 c -0.288,0.648 -0.36,1.224 -0.36,1.656 0,1.08 0.288,1.944 1.008,2.664 0.72,0.72 1.584,1.08 2.66401,1.08 0.71999,0 1.368,-0.144 2.01599,-0.576 0.576,-0.432 1.08001,-0.936 1.44,-1.728 l 3.528,-8.712 c 0.36,-0.864 1.008,-1.368 2.01601,-1.368 h 22.896 c 1.008,0 1.65599,0.504 2.01599,1.368 l 3.52801,8.712 c 0.216,0.72 0.71999,1.296 1.36799,1.728 0.648,0.432 1.296,0.576 2.08801,0.576 1.008,0 1.94399,-0.36 2.664,-1.08 0.71999,-0.72 1.07999,-1.584 1.07999,-2.592 z m -14.976,-17.856 c 0.28801,0.72 0.21601,1.44 -0.216,2.016 -0.432,0.648 -1.00799,0.936 -1.8,0.936 h -14.4 c -0.792,0 -1.36799,-0.288 -1.8,-0.936 -0.432,-0.648 -0.504,-1.296 -0.216,-2.016 l 7.344,-17.784 c 0.36,-0.864 1.00801,-1.296 1.944,-1.296 1.008,0 1.656,0.432 2.01601,1.368 z" stroke-width="0" stroke-linejoin="miter" stroke-miterlimit="2" fill="#3a3b3e" stroke="#3a3b3e" transform="translate(0 324.42112) translate(50 12.324560000000005) scale(1.67) translate(-387.15537 56.232)"></path>
        <path id="path215382" style="font-style:normal;font-weight:700;font-size:72px;line-height:1;font-family:'Comfortaa Bold Alt1';font-variant-ligatures:none;text-align:center;text-anchor:middle" d="m 472.48437,-3.384 c 0,-2.232 -1.15199,-3.384 -3.384,-3.384 h -18.288 l 20.304,-26.928 c 0.43201,-0.576 0.648,-1.296 0.648,-2.304 0,-2.232 -1.152,-3.384 -3.38399,-3.384 h -24.55201 c -2.30399,0 -3.384,1.152 -3.384,3.384 0,2.304 1.08001,3.384 3.384,3.384 h 18.36 l -20.376,26.928 c -0.43199,0.576 -0.648,1.368 -0.648,2.304 0,2.304 1.08,3.384 3.38401,3.384 h 24.55199 c 2.23201,0 3.384,-1.08 3.384,-3.384 z" stroke-width="0" stroke-linejoin="miter" stroke-miterlimit="2" fill="#4e4f52" stroke="#4e4f52" transform="translate(0 324.42112) translate(138.99262999999996 40.460719999999995) scale(1.67) translate(-440.44437 39.384)"></path>
        <path id="path215384" style="font-style:normal;font-weight:700;font-size:72px;line-height:1;font-family:'Comfortaa Bold Alt1';font-variant-ligatures:none;text-align:center;text-anchor:middle" d="m 514.78662,-18 c 0.576,-0.576 0.936,-1.368 0.936,-2.304 0,-3.744 -0.72,-7.128 -2.15999,-10.08 -1.44001,-2.88 -3.52801,-5.184 -6.192,-6.84 -2.736,-1.584 -5.904,-2.448 -9.57601,-2.448 -3.74399,0 -7.128,0.864 -10.08,2.592 -2.95199,1.728 -5.256,4.104 -6.912,7.128 -1.656,3.024 -2.448,6.48 -2.448,10.296 0,3.888 0.864,7.272 2.592,10.296 1.728,3.024 4.176,5.4 7.344,7.128 3.096,1.728 6.624,2.52 10.584,2.52 2.16,0 4.464,-0.36 6.91201,-1.224 2.44799,-0.792 4.464,-1.872 6.12,-3.168 0.71999,-0.576 1.15199,-1.296 1.15199,-2.16 0,-0.864 -0.432,-1.728 -1.29599,-2.448 -0.57601,-0.432 -1.296,-0.72 -2.16001,-0.72 -0.936,0 -1.728,0.288 -2.37599,0.792 -1.00801,0.792 -2.30401,1.44 -3.88801,1.944 -1.584,0.576 -3.024,0.792 -4.464,0.792 -3.672,0 -6.768,-1.008 -9.28799,-3.096 -2.52001,-2.016 -4.03201,-4.752 -4.536,-8.136 h 27.35999 c 0.93601,0 1.72801,-0.288 2.376,-0.864 z m -25.55999,-12.6 c 2.15999,-1.872 5.03999,-2.88 8.56799,-2.88 3.168,0 5.688,1.008 7.704,2.88 1.94401,1.944 3.168,4.536 3.6,7.704 h -23.976 c 0.576,-3.168 1.944,-5.76 4.10401,-7.704 z" stroke-width="0" stroke-linejoin="miter" stroke-miterlimit="2" fill="#626366" stroke="#626366" transform="translate(0 324.42112) translate(202.30274749999995 39.97976000000001) scale(1.67) translate(-478.35462 39.672)"></path>
        <path id="path215386" style="font-style:normal;font-weight:700;font-size:72px;line-height:1;font-family:'Comfortaa Bold Alt1';font-variant-ligatures:none;text-align:center;text-anchor:middle" d="m 559.79337,-31.248 c -1.51199,-2.736 -3.59999,-4.896 -6.192,-6.336 -2.52,-1.296 -5.256,-2.016 -8.28,-2.088 -0.072,0 -0.216,-0.072 -0.216,-0.072 h -16.55999 c -1.00801,0 -1.80001,0.36 -2.448,1.008 -0.72,0.72 -1.008,1.512 -1.008,2.448 0,0.072 0,0.216 0,0.288 0,0.144 0,0.216 0,0.288 V -3.6 c 0,1.08 0.288,1.944 1.008,2.664 0.71999,0.72 1.58399,1.008 2.664,1.008 1.07999,0 1.94399,-0.288 2.664,-1.008 0.648,-0.72 1.00799,-1.584 1.00799,-2.664 v -20.304 c 0,-1.728 0.432,-3.24 1.368,-4.68 0.93601,-1.368 2.232,-2.448 3.88801,-3.312 1.65599,-0.792 3.52799,-1.224 5.544,-1.224 3.456,0 6.192,1.008 8.27999,3.024 2.088,2.016 3.168,4.968 3.168,8.784 V -3.6 c 0,1.08 0.28801,1.944 1.00801,2.664 0.71999,0.72 1.58399,1.008 2.664,1.008 1.00799,0 1.87199,-0.288 2.592,-1.008 0.72,-0.72 1.07999,-1.584 1.07999,-2.664 v -17.712 c 0,-3.888 -0.79199,-7.2 -2.232,-9.936 z" stroke-width="0" stroke-linejoin="miter" stroke-miterlimit="2" fill="#77787a" stroke="#77787a" transform="translate(0 324.42112) translate(280.34979669999996 39.85952) scale(1.67) translate(-525.08938 39.744)"></path>
        <path id="path215388" style="font-style:normal;font-weight:700;font-size:72px;line-height:1;font-family:'Comfortaa Bold Alt1';font-variant-ligatures:none;text-align:center;text-anchor:middle" d="m 575.8955,-38.376 c -0.72,0.72 -1.008,1.584 -1.008,2.664 v 32.04 c 0,1.08 0.288,1.944 1.008,2.664 0.72,0.72 1.584,1.008 2.664,1.008 1.08,0 1.944,-0.288 2.664,-1.008 0.648,-0.72 1.008,-1.584 1.008,-2.664 v -32.04 c 0,-1.08 -0.36,-1.944 -1.008,-2.664 -0.72,-0.648 -1.584,-1.008 -2.664,-1.008 -1.08,0 -1.944,0.36 -2.664,1.008 z" stroke-width="0" stroke-linejoin="miter" stroke-miterlimit="2" fill="#8b8c8e" stroke="#8b8c8e" transform="translate(0 324.42112) translate(363.51265710000007 40.460719999999995) scale(1.67) translate(-574.8875 39.384)"></path>
        <path id="path215390" style="font-style:normal;font-weight:700;font-size:72px;line-height:1;font-family:'Comfortaa Bold Alt1';font-variant-ligatures:none;text-align:center;text-anchor:middle" d="m 633.62037,-19.656 c 0,-3.672 -0.93599,-7.128 -2.664,-10.152 -1.72799,-3.024 -4.10399,-5.472 -7.12799,-7.2 -3.024,-1.728 -6.336,-2.664 -10.008,-2.664 -3.74401,0 -7.12801,0.936 -10.15201,2.664 -3.024,1.728 -5.4,4.176 -7.12799,7.2 -1.72801,3.024 -2.592,6.408 -2.592,10.152 0,3.744 0.79199,7.2 2.376,10.224 1.58399,3.024 3.81599,5.4 6.624,7.128 2.88,1.8 5.976,2.664 9.43199,2.664 h 0.576 17.20801 c 0.93599,0 1.728,-0.36 2.448,-1.008 0.64799,-0.648 1.00799,-1.44 1.00799,-2.448 V -3.6 Z m -30.95999,6.912 c -1.15201,-2.016 -1.65601,-4.32 -1.65601,-6.912 0,-2.52 0.504,-4.824 1.65601,-6.912 1.15199,-2.016 2.664,-3.672 4.60799,-4.824 1.944,-1.152 4.10401,-1.8 6.55201,-1.8 2.37599,0 4.53599,0.648 6.48,1.8 1.94399,1.152 3.456,2.808 4.60799,4.824 1.08001,2.088 1.65601,4.392 1.65601,6.912 0,2.592 -0.576,4.896 -1.65601,6.912 -1.15199,2.016 -2.664,3.672 -4.60799,4.824 -1.94401,1.152 -4.10401,1.728 -6.48,1.728 -2.448,0 -4.60801,-0.576 -6.55201,-1.728 -1.94399,-1.152 -3.456,-2.808 -4.60799,-4.824 z" stroke-width="0" stroke-linejoin="miter" stroke-miterlimit="2" fill="#9fa0a2" stroke="#9fa0a2" transform="translate(0 324.42112) translate(395.34432669999995 39.97976000000001) scale(1.67) translate(-593.94838 39.672)"></path>
      </g>
      <image xlink:href="https://app.brandmark.io/nounpreview/1117507.png" id="icon" x="0" y="0" style="display: none;"></image>
    </g>
  </g>
</svg>